<svg width="401" height="390" viewBox="0 0 401 390" fill="none" xmlns="http://www.w3.org/2000/svg">
<g filter="url(#filter0_d_80_17740)">
<rect x="48" y="48" width="305" height="294" rx="24" fill="white"/>
<g filter="url(#filter1_i_80_17740)">
<rect x="102" y="64" width="197" height="36" rx="18" fill="#F7F9FB"/>
<rect x="107" y="68" width="105" height="28" rx="14" fill="black"/>
<path d="M129.371 86V80.0703H129.424L133.625 86H134.926V77.5449H133.473V83.4688H133.42L129.225 77.5449H127.912V86H129.371ZM140.387 84.1426C140.229 84.6582 139.713 84.998 139.033 84.998C138.078 84.998 137.469 84.3301 137.469 83.334V83.2461H141.811V82.7715C141.811 80.8848 140.709 79.6602 138.945 79.6602C137.152 79.6602 136.016 80.9551 136.016 82.918C136.016 84.8984 137.141 86.123 139.004 86.123C140.475 86.123 141.564 85.3145 141.752 84.1426H140.387ZM138.951 80.791C139.789 80.791 140.352 81.4062 140.381 82.2852H137.48C137.539 81.418 138.131 80.791 138.951 80.791ZM151.156 79.7891H149.715L148.666 84.5586H148.631L147.418 79.7891H146.018L144.805 84.5586H144.775L143.727 79.7891H142.262L143.943 86H145.467L146.686 81.459H146.715L147.939 86H149.475L151.156 79.7891ZM155.943 77.5449H154.432V83.0176C154.432 84.8633 155.768 86.1406 157.906 86.1406C160.051 86.1406 161.381 84.8633 161.381 83.0176V77.5449H159.875V82.8828C159.875 84.0371 159.16 84.8223 157.906 84.8223C156.652 84.8223 155.943 84.0371 155.943 82.8828V77.5449ZM166.145 79.6836C165.242 79.6836 164.539 80.1406 164.188 80.8613H164.158V79.7891H162.734V88.0449H164.193V84.9688H164.223C164.562 85.666 165.266 86.0996 166.168 86.0996C167.727 86.0996 168.723 84.875 168.723 82.8945C168.723 80.9082 167.721 79.6836 166.145 79.6836ZM165.699 84.9043C164.791 84.9043 164.188 84.1133 164.182 82.8945C164.188 81.6875 164.791 80.8848 165.699 80.8848C166.643 80.8848 167.229 81.6699 167.229 82.8945C167.229 84.125 166.643 84.9043 165.699 84.9043ZM169.701 86H171.16V77.5449H169.701V86ZM175.15 86.123C176.973 86.123 178.156 84.9102 178.156 82.8945C178.156 80.8848 176.961 79.6602 175.15 79.6602C173.34 79.6602 172.145 80.8906 172.145 82.8945C172.145 84.9102 173.328 86.123 175.15 86.123ZM175.15 84.9688C174.225 84.9688 173.627 84.2188 173.627 82.8945C173.627 81.5762 174.23 80.8203 175.15 80.8203C176.076 80.8203 176.674 81.5762 176.674 82.8945C176.674 84.2188 176.076 84.9688 175.15 84.9688ZM180.922 86.0996C181.719 86.0996 182.498 85.6836 182.855 85.0098H182.885V86H184.291V81.7227C184.291 80.4746 183.289 79.6602 181.748 79.6602C180.166 79.6602 179.176 80.4922 179.111 81.6523H180.465C180.559 81.1367 180.998 80.8027 181.689 80.8027C182.41 80.8027 182.85 81.1777 182.85 81.8281V82.2734L181.209 82.3672C179.697 82.4609 178.848 83.123 178.848 84.2246C178.848 85.3438 179.721 86.0996 180.922 86.0996ZM181.361 84.998C180.729 84.998 180.307 84.6758 180.307 84.166C180.307 83.6738 180.711 83.3574 181.414 83.3105L182.85 83.2227V83.6973C182.85 84.4473 182.188 84.998 181.361 84.998ZM187.789 86.0996C188.697 86.0996 189.412 85.6367 189.752 84.9395H189.775V86H191.205V77.5449H189.746V80.832H189.711C189.383 80.1465 188.68 79.6836 187.789 79.6836C186.225 79.6836 185.211 80.9258 185.211 82.8887C185.211 84.8633 186.225 86.0996 187.789 86.0996ZM188.229 80.8848C189.148 80.8848 189.752 81.6758 189.752 82.8945C189.752 84.125 189.148 84.9043 188.229 84.9043C187.285 84.9043 186.705 84.1309 186.705 82.8945C186.705 81.6641 187.291 80.8848 188.229 80.8848Z" fill="white"/>
<rect x="216" y="68" width="78" height="28" rx="14" fill="#F7F9FB"/>
<path d="M238.5 82.8184H240.135L241.799 86H243.521L241.676 82.5898C242.684 82.2266 243.27 81.2949 243.27 80.1758C243.27 78.5586 242.174 77.5449 240.346 77.5449H236.988V86H238.5V82.8184ZM238.5 78.7695H240.176C241.131 78.7695 241.723 79.3203 241.723 80.2109C241.723 81.125 241.166 81.6582 240.205 81.6582H238.5V78.7695ZM248.42 84.1426C248.262 84.6582 247.746 84.998 247.066 84.998C246.111 84.998 245.502 84.3301 245.502 83.334V83.2461H249.844V82.7715C249.844 80.8848 248.742 79.6602 246.979 79.6602C245.186 79.6602 244.049 80.9551 244.049 82.918C244.049 84.8984 245.174 86.123 247.037 86.123C248.508 86.123 249.598 85.3145 249.785 84.1426H248.42ZM246.984 80.791C247.822 80.791 248.385 81.4062 248.414 82.2852H245.514C245.572 81.418 246.164 80.791 246.984 80.791ZM256.26 82.0039C256.16 80.6973 255.146 79.6602 253.506 79.6602C251.701 79.6602 250.529 80.9082 250.529 82.8945C250.529 84.9102 251.701 86.123 253.518 86.123C255.076 86.123 256.148 85.209 256.266 83.8203H254.889C254.754 84.5234 254.273 84.9453 253.535 84.9453C252.609 84.9453 252.012 84.1953 252.012 82.8945C252.012 81.6172 252.604 80.8438 253.523 80.8438C254.303 80.8438 254.766 81.3418 254.883 82.0039H256.26ZM261.252 84.1426C261.094 84.6582 260.578 84.998 259.898 84.998C258.943 84.998 258.334 84.3301 258.334 83.334V83.2461H262.676V82.7715C262.676 80.8848 261.574 79.6602 259.811 79.6602C258.018 79.6602 256.881 80.9551 256.881 82.918C256.881 84.8984 258.006 86.123 259.869 86.123C261.34 86.123 262.43 85.3145 262.617 84.1426H261.252ZM259.816 80.791C260.654 80.791 261.217 81.4062 261.246 82.2852H258.346C258.404 81.418 258.996 80.791 259.816 80.791ZM263.619 86H265.078V82.4023C265.078 81.5117 265.611 80.9082 266.449 80.9082C267.281 80.9082 267.691 81.4004 267.691 82.2793V86H269.15V81.9863C269.15 80.5508 268.371 79.6719 267 79.6719C266.045 79.6719 265.383 80.1172 265.049 80.8555H265.02V79.7891H263.619V86ZM270.727 78.3359V79.7891H269.836V80.9141H270.727V84.3477C270.727 85.5547 271.254 86.0293 272.596 86.0293C272.906 86.0293 273.193 86.0059 273.352 85.9707V84.8574C273.258 84.875 273.07 84.8867 272.936 84.8867C272.42 84.8867 272.186 84.6523 272.186 84.1426V80.9141H273.357V79.7891H272.186V78.3359H270.727Z" fill="black"/>
</g>
<rect x="311" y="77.1333" width="16" height="1.06667" rx="0.533333" fill="black"/>
<rect x="311" y="85.1333" width="16" height="1.06667" rx="0.533333" fill="black"/>
<circle cx="321.667" cy="85.6667" r="1.86667" fill="white" stroke="black" stroke-width="1.6"/>
<circle cx="317.085" cy="77.6667" r="1.86667" fill="white" stroke="black" stroke-width="1.6"/>
<circle cx="319" cy="82" r="17.5" stroke="#EBEFF2"/>
<path d="M48 116H353V318C353 331.255 342.255 342 329 342H72C58.7452 342 48 331.255 48 318V116Z" fill="#F7F9FB"/>
<path opacity="0.5" d="M152.149 225.164C154.33 225.164 155.793 224.077 156.244 222.129H155C154.645 223.332 153.605 224.029 152.156 224.029C150.208 224.029 148.971 222.484 148.971 220.064C148.971 217.665 150.222 216.106 152.149 216.106C153.558 216.106 154.686 216.954 155 218.246H156.244C155.93 216.277 154.296 214.972 152.149 214.972C149.449 214.972 147.706 216.968 147.706 220.064C147.706 223.188 149.429 225.164 152.149 225.164ZM157.577 225H158.767V215.136H157.577V225ZM161.029 216.626C161.446 216.626 161.774 216.291 161.774 215.881C161.774 215.464 161.446 215.136 161.029 215.136C160.619 215.136 160.284 215.464 160.284 215.881C160.284 216.291 160.619 216.626 161.029 216.626ZM160.435 225H161.624V217.891H160.435V225ZM169.137 220.222C168.986 218.943 167.927 217.768 166.149 217.768C164.188 217.768 162.882 219.203 162.882 221.445C162.882 223.735 164.194 225.123 166.163 225.123C167.776 225.123 168.966 224.125 169.15 222.71H167.981C167.776 223.564 167.141 224.077 166.17 224.077C164.939 224.077 164.092 223.1 164.092 221.445C164.092 219.832 164.926 218.813 166.156 218.813C167.202 218.813 167.804 219.449 167.975 220.222H169.137ZM171.495 222.32L172.158 221.691L174.797 225H176.178L172.999 220.96L176.082 217.891H174.64L171.495 221.049V215.136H170.306V225H171.495V222.32ZM180.293 216.175V217.891H179.233V218.868H180.293V223.154C180.293 224.521 180.799 225.055 182.104 225.055C182.385 225.055 182.713 225.034 182.856 225V224.002C182.774 224.016 182.501 224.036 182.364 224.036C181.756 224.036 181.482 223.742 181.482 223.093V218.868H182.863V217.891H181.482V216.175H180.293ZM186.876 225.123C188.838 225.123 190.164 223.708 190.164 221.445C190.164 219.176 188.838 217.768 186.876 217.768C184.907 217.768 183.581 219.176 183.581 221.445C183.581 223.708 184.907 225.123 186.876 225.123ZM186.876 224.077C185.618 224.077 184.791 223.12 184.791 221.445C184.791 219.771 185.618 218.813 186.876 218.813C188.134 218.813 188.954 219.771 188.954 221.445C188.954 223.12 188.134 224.077 186.876 224.077ZM197.772 225.123C199.591 225.123 200.794 223.681 200.794 221.445C200.794 219.217 199.584 217.768 197.793 217.768C196.788 217.768 195.961 218.267 195.517 219.08H195.489V215.136H194.3V225H195.435V223.797H195.462C195.92 224.617 196.733 225.123 197.772 225.123ZM197.54 218.813C198.798 218.813 199.577 219.832 199.577 221.445C199.577 223.072 198.798 224.077 197.54 224.077C196.337 224.077 195.482 223.031 195.482 221.445C195.482 219.866 196.337 218.813 197.54 218.813ZM202.004 225H203.193V220.57C203.193 219.565 203.795 218.902 204.718 218.902C205.005 218.902 205.258 218.937 205.354 218.971V217.815C205.258 217.802 205.08 217.768 204.875 217.768C204.041 217.768 203.385 218.267 203.152 219.053H203.125V217.891H202.004V225ZM208.929 225.123C210.891 225.123 212.217 223.708 212.217 221.445C212.217 219.176 210.891 217.768 208.929 217.768C206.96 217.768 205.634 219.176 205.634 221.445C205.634 223.708 206.96 225.123 208.929 225.123ZM208.929 224.077C207.671 224.077 206.844 223.12 206.844 221.445C206.844 219.771 207.671 218.813 208.929 218.813C210.187 218.813 211.007 219.771 211.007 221.445C211.007 223.12 210.187 224.077 208.929 224.077ZM222.464 217.891H221.288L219.866 223.674H219.839L218.226 217.891H217.077L215.471 223.674H215.443L214.021 217.891H212.839L214.828 225H216.038L217.638 219.497H217.665L219.271 225H220.481L222.464 217.891ZM223.318 219.853C223.318 220.878 223.968 221.5 225.308 221.821L226.436 222.095C227.249 222.293 227.529 222.587 227.529 223.1C227.529 223.742 226.935 224.152 225.971 224.152C225.007 224.152 224.46 223.763 224.316 222.949H223.127C223.264 224.282 224.303 225.123 225.971 225.123C227.557 225.123 228.726 224.248 228.726 223.011C228.726 221.992 228.206 221.432 226.771 221.083L225.643 220.81C224.85 220.618 224.487 220.283 224.487 219.791C224.487 219.169 225.062 218.738 225.93 218.738C226.805 218.738 227.352 219.196 227.44 219.941H228.575C228.527 218.684 227.488 217.768 225.93 217.768C224.392 217.768 223.318 218.636 223.318 219.853ZM234.68 222.963C234.481 223.633 233.818 224.091 232.916 224.091C231.638 224.091 230.838 223.195 230.838 221.835V221.767H235.938V221.315C235.938 219.162 234.755 217.768 232.834 217.768C230.872 217.768 229.614 219.265 229.614 221.473C229.614 223.708 230.852 225.123 232.889 225.123C234.44 225.123 235.644 224.207 235.849 222.963H234.68ZM232.813 218.8C233.935 218.8 234.68 219.647 234.707 220.837H230.845C230.92 219.654 231.699 218.8 232.813 218.8ZM242.958 225.123C244.92 225.123 246.246 223.708 246.246 221.445C246.246 219.176 244.92 217.768 242.958 217.768C240.989 217.768 239.663 219.176 239.663 221.445C239.663 223.708 240.989 225.123 242.958 225.123ZM242.958 224.077C241.7 224.077 240.873 223.12 240.873 221.445C240.873 219.771 241.7 218.813 242.958 218.813C244.216 218.813 245.036 219.771 245.036 221.445C245.036 223.12 244.216 224.077 242.958 224.077ZM247.449 225H248.639V220.57C248.639 219.565 249.24 218.902 250.163 218.902C250.45 218.902 250.703 218.937 250.799 218.971V217.815C250.703 217.802 250.525 217.768 250.32 217.768C249.486 217.768 248.83 218.267 248.598 219.053H248.57V217.891H247.449V225ZM135.675 242.123C136.7 242.123 137.514 241.617 137.972 240.797H137.992V242H139.127V232.136H137.938V236.046H137.91C137.486 235.267 136.666 234.768 135.647 234.768C133.856 234.768 132.633 236.217 132.633 238.445C132.633 240.674 133.863 242.123 135.675 242.123ZM135.9 235.813C137.124 235.813 137.944 236.859 137.944 238.445C137.944 240.038 137.124 241.077 135.9 241.077C134.643 241.077 133.85 240.059 133.85 238.445C133.85 236.839 134.643 235.813 135.9 235.813ZM140.733 242H141.923V237.57C141.923 236.565 142.524 235.902 143.447 235.902C143.734 235.902 143.987 235.937 144.083 235.971V234.815C143.987 234.802 143.81 234.768 143.604 234.768C142.771 234.768 142.114 235.267 141.882 236.053H141.854V234.891H140.733V242ZM146.995 242.123C147.952 242.123 148.854 241.59 149.278 240.776H149.306V242H150.434V237.085C150.434 235.67 149.381 234.768 147.713 234.768C146.031 234.768 144.979 235.711 144.896 236.941H146.045C146.195 236.244 146.77 235.813 147.686 235.813C148.67 235.813 149.244 236.333 149.244 237.201V237.796L147.207 237.912C145.566 238.008 144.63 238.773 144.63 239.99C144.63 241.269 145.58 242.123 146.995 242.123ZM147.262 241.111C146.407 241.111 145.84 240.667 145.84 239.99C145.84 239.32 146.387 238.896 147.344 238.835L149.244 238.719V239.3C149.244 240.325 148.383 241.111 147.262 241.111ZM154.877 244.68C156.839 244.68 158.09 243.552 158.09 241.856V234.891H156.955V236.087H156.935C156.463 235.26 155.629 234.768 154.624 234.768C152.785 234.768 151.596 236.189 151.596 238.418C151.596 240.626 152.785 242.055 154.597 242.055C155.595 242.055 156.436 241.549 156.873 240.776H156.9V241.897C156.9 242.957 156.155 243.668 154.925 243.668C154.036 243.668 153.332 243.237 153.1 242.588H151.876C152.074 243.798 153.312 244.68 154.877 244.68ZM154.836 241.009C153.612 241.009 152.812 240.011 152.812 238.418C152.812 236.825 153.612 235.813 154.836 235.813C156.073 235.813 156.9 236.853 156.9 238.418C156.9 239.983 156.073 241.009 154.836 241.009ZM164.591 242.123C165.548 242.123 166.45 241.59 166.874 240.776H166.901V242H168.029V237.085C168.029 235.67 166.977 234.768 165.309 234.768C163.627 234.768 162.574 235.711 162.492 236.941H163.641C163.791 236.244 164.365 235.813 165.281 235.813C166.266 235.813 166.84 236.333 166.84 237.201V237.796L164.803 237.912C163.162 238.008 162.226 238.773 162.226 239.99C162.226 241.269 163.176 242.123 164.591 242.123ZM164.857 241.111C164.003 241.111 163.436 240.667 163.436 239.99C163.436 239.32 163.982 238.896 164.939 238.835L166.84 238.719V239.3C166.84 240.325 165.979 241.111 164.857 241.111ZM169.54 242H170.729V237.816C170.729 236.613 171.461 235.82 172.582 235.82C173.676 235.82 174.216 236.449 174.216 237.598V242H175.405V237.386C175.405 235.772 174.503 234.768 172.944 234.768C171.844 234.768 171.085 235.26 170.688 236.025H170.661V234.891H169.54V242ZM179.616 242.123C180.642 242.123 181.455 241.617 181.913 240.797H181.934V242H183.068V232.136H181.879V236.046H181.852C181.428 235.267 180.607 234.768 179.589 234.768C177.798 234.768 176.574 236.217 176.574 238.445C176.574 240.674 177.805 242.123 179.616 242.123ZM179.842 235.813C181.065 235.813 181.886 236.859 181.886 238.445C181.886 240.038 181.065 241.077 179.842 241.077C178.584 241.077 177.791 240.059 177.791 238.445C177.791 236.839 178.584 235.813 179.842 235.813ZM190.239 242.123C191.265 242.123 192.078 241.617 192.536 240.797H192.557V242H193.691V232.136H192.502V236.046H192.475C192.051 235.267 191.23 234.768 190.212 234.768C188.421 234.768 187.197 236.217 187.197 238.445C187.197 240.674 188.428 242.123 190.239 242.123ZM190.465 235.813C191.688 235.813 192.509 236.859 192.509 238.445C192.509 240.038 191.688 241.077 190.465 241.077C189.207 241.077 188.414 240.059 188.414 238.445C188.414 236.839 189.207 235.813 190.465 235.813ZM195.298 242H196.487V237.57C196.487 236.565 197.089 235.902 198.012 235.902C198.299 235.902 198.552 235.937 198.647 235.971V234.815C198.552 234.802 198.374 234.768 198.169 234.768C197.335 234.768 196.679 235.267 196.446 236.053H196.419V234.891H195.298V242ZM202.223 242.123C204.185 242.123 205.511 240.708 205.511 238.445C205.511 236.176 204.185 234.768 202.223 234.768C200.254 234.768 198.928 236.176 198.928 238.445C198.928 240.708 200.254 242.123 202.223 242.123ZM202.223 241.077C200.965 241.077 200.138 240.12 200.138 238.445C200.138 236.771 200.965 235.813 202.223 235.813C203.48 235.813 204.301 236.771 204.301 238.445C204.301 240.12 203.48 241.077 202.223 241.077ZM210.166 234.768C209.134 234.768 208.307 235.294 207.869 236.094H207.842V234.891H206.714V244.372H207.903V240.845H207.931C208.354 241.624 209.175 242.123 210.193 242.123C211.984 242.123 213.208 240.674 213.208 238.445C213.208 236.217 211.978 234.768 210.166 234.768ZM209.934 241.077C208.717 241.077 207.896 240.031 207.896 238.445C207.896 236.866 208.717 235.813 209.934 235.813C211.198 235.813 211.991 236.839 211.991 238.445C211.991 240.059 211.198 241.077 209.934 241.077ZM217.877 244.659C219.162 244.659 219.75 244.16 220.358 242.499L223.154 234.891H221.903L219.935 240.811H219.914L217.945 234.891H216.674L219.299 242.007L219.135 242.506C218.861 243.333 218.492 243.654 217.829 243.654C217.679 243.654 217.494 243.647 217.364 243.62V244.618C217.494 244.646 217.733 244.659 217.877 244.659ZM226.832 242.123C228.794 242.123 230.12 240.708 230.12 238.445C230.12 236.176 228.794 234.768 226.832 234.768C224.863 234.768 223.537 236.176 223.537 238.445C223.537 240.708 224.863 242.123 226.832 242.123ZM226.832 241.077C225.574 241.077 224.747 240.12 224.747 238.445C224.747 236.771 225.574 235.813 226.832 235.813C228.09 235.813 228.91 236.771 228.91 238.445C228.91 240.12 228.09 241.077 226.832 241.077ZM237.161 234.891H235.972V239.067C235.972 240.277 235.274 241.07 234.119 241.07C233.019 241.07 232.479 240.448 232.479 239.293V234.891H231.289V239.505C231.289 241.118 232.198 242.123 233.75 242.123C234.844 242.123 235.582 241.665 236.006 240.845H236.033V242H237.161V234.891ZM238.706 242H239.896V237.57C239.896 236.565 240.497 235.902 241.42 235.902C241.707 235.902 241.96 235.937 242.056 235.971V234.815C241.96 234.802 241.782 234.768 241.577 234.768C240.743 234.768 240.087 235.267 239.854 236.053H239.827V234.891H238.706V242ZM246.28 242H247.47V235.868H248.919V234.891H247.463V234.104C247.463 233.4 247.771 233.059 248.413 233.059C248.611 233.059 248.81 233.079 248.953 233.1V232.136C248.782 232.108 248.495 232.081 248.229 232.081C246.916 232.081 246.28 232.73 246.28 234.098V234.891H245.289V235.868H246.28V242ZM250.806 233.626C251.223 233.626 251.551 233.291 251.551 232.881C251.551 232.464 251.223 232.136 250.806 232.136C250.396 232.136 250.061 232.464 250.061 232.881C250.061 233.291 250.396 233.626 250.806 233.626ZM250.211 242H251.4V234.891H250.211V242ZM253.068 242H254.258V232.136H253.068V242ZM260.581 239.963C260.383 240.633 259.72 241.091 258.817 241.091C257.539 241.091 256.739 240.195 256.739 238.835V238.767H261.839V238.315C261.839 236.162 260.656 234.768 258.735 234.768C256.773 234.768 255.516 236.265 255.516 238.473C255.516 240.708 256.753 242.123 258.79 242.123C260.342 242.123 261.545 241.207 261.75 239.963H260.581ZM258.715 235.8C259.836 235.8 260.581 236.647 260.608 237.837H256.746C256.821 236.654 257.601 235.8 258.715 235.8ZM262.919 236.853C262.919 237.878 263.568 238.5 264.908 238.821L266.036 239.095C266.85 239.293 267.13 239.587 267.13 240.1C267.13 240.742 266.535 241.152 265.571 241.152C264.607 241.152 264.061 240.763 263.917 239.949H262.728C262.864 241.282 263.903 242.123 265.571 242.123C267.157 242.123 268.326 241.248 268.326 240.011C268.326 238.992 267.807 238.432 266.371 238.083L265.243 237.81C264.45 237.618 264.088 237.283 264.088 236.791C264.088 236.169 264.662 235.738 265.53 235.738C266.405 235.738 266.952 236.196 267.041 236.941H268.176C268.128 235.684 267.089 234.768 265.53 234.768C263.992 234.768 262.919 235.636 262.919 236.853Z" fill="#242634"/>
<rect x="81" y="149" width="239" height="160" rx="23" stroke="#E2E6EA" stroke-width="2" stroke-dasharray="8 4"/>
<rect x="48" y="116" width="305" height="1" fill="#EBEFF2"/>
</g>
<defs>
<filter id="filter0_d_80_17740" x="0" y="0" width="401" height="390" filterUnits="userSpaceOnUse" color-interpolation-filters="sRGB">
<feFlood flood-opacity="0" result="BackgroundImageFix"/>
<feColorMatrix in="SourceAlpha" type="matrix" values="0 0 0 0 0 0 0 0 0 0 0 0 0 0 0 0 0 0 127 0" result="hardAlpha"/>
<feOffset/>
<feGaussianBlur stdDeviation="24"/>
<feColorMatrix type="matrix" values="0 0 0 0 0.09625 0 0 0 0 0.152075 0 0 0 0 0.35 0 0 0 0.06 0"/>
<feBlend mode="normal" in2="BackgroundImageFix" result="effect1_dropShadow_80_17740"/>
<feBlend mode="normal" in="SourceGraphic" in2="effect1_dropShadow_80_17740" result="shape"/>
</filter>
<filter id="filter1_i_80_17740" x="102" y="64" width="197" height="36" filterUnits="userSpaceOnUse" color-interpolation-filters="sRGB">
<feFlood flood-opacity="0" result="BackgroundImageFix"/>
<feBlend mode="normal" in="SourceGraphic" in2="BackgroundImageFix" result="shape"/>
<feColorMatrix in="SourceAlpha" type="matrix" values="0 0 0 0 0 0 0 0 0 0 0 0 0 0 0 0 0 0 127 0" result="hardAlpha"/>
<feOffset/>
<feGaussianBlur stdDeviation="1"/>
<feComposite in2="hardAlpha" operator="arithmetic" k2="-1" k3="1"/>
<feColorMatrix type="matrix" values="0 0 0 0 0 0 0 0 0 0 0 0 0 0 0 0 0 0 0.1 0"/>
<feBlend mode="normal" in2="shape" result="effect1_innerShadow_80_17740"/>
</filter>
</defs>
</svg>
